# xmcd
#
# Track frame offsets:
#	150
#	13023
#	27006
#	42893
#	53658
#	66409
#	79395
#	92995
#	110959
#	122438
#	138215
#	157539
#	175375
#	196341
#	218029
#	230186
#	243528
#	257906
#	269254
#	282466
#	295115
#	312568
#	326118
#	341350
#
# Disc length: 4759 seconds
# Revision: 1
# Processed by: cddbd v1.5.2PL0 Copyright (c) Steve Scherf et al.
# Submitted via: dBpowerAMP V12.0
#
DISCID=6a129518
DTITLE=Tucker, Tanya - The Ultimate Collection
DYEAR=2009
DGENRE=Country
TTITLE0=San Antonio stroll
TTITLE1=Lizzie and the Rainman
TTITLE2=I'm not Lisa
TTITLE3=Son of a Preacher Man
TTITLE4=Don't believe my Heart can stand another you
TTITLE5=Here's some love
TTITLE6=You've got me to hold on to
TTITLE7=My cowboys getting old
TTITLE8=It's a cowboy-lovin' night
TTITLE9=Dancing the night away
TTITLE10=Lover goodbye
TTITLE11=I'm a singer, you're the song
TTITLE12=Texas (When I die)
TTITLE13=Angel from Montgomery
TTITLE14=Ridin' the rainbows
TTITLE15=Wait till Daddy finds out
TTITLE16=By day by day
TTITLE17=Pecos promenade
TTITLE18=Dream lover
TTITLE19=Can I see you tonight
TTITLE20=Love knows we tried
TTITLE21=Should I do it
TTITLE22=Rodeo Girls
TTITLE23=Delta Dawn
EXTD=
EXTT0=
EXTT1=
EXTT2=
EXTT3=
EXTT4=
EXTT5=
EXTT6=
EXTT7=
EXTT8=
EXTT9=
EXTT10=
EXTT11=
EXTT12=
EXTT13=
EXTT14=
EXTT15=
EXTT16=
EXTT17=
EXTT18=
EXTT19=
EXTT20=
EXTT21=
EXTT22=
EXTT23=
PLAYORDER=
